<svg width="325" height="48" viewBox="0 0 325 48" fill="none" xmlns="http://www.w3.org/2000/svg">
<g clip-path="url(#clip0_1_15)">
<rect x="0.5" y="0.5" width="324" height="47" rx="3.5" fill="white" stroke="#BCD0E5"/>
<path d="M44.688 20.032V23.76H48.752V24.96H44.688V28.8H49.232V30H43.232V18.832H49.232V20.032H44.688ZM55.7071 21.072C56.7738 21.072 57.6378 21.3973 58.2991 22.048C58.9605 22.688 59.2911 23.616 59.2911 24.832V30H57.8511V25.04C57.8511 24.1653 57.6325 23.4987 57.1951 23.04C56.7578 22.5707 56.1605 22.336 55.4031 22.336C54.6351 22.336 54.0218 22.576 53.5631 23.056C53.1151 23.536 52.8911 24.2347 52.8911 25.152V30H51.4351V21.232H52.8911V22.48C53.1791 22.032 53.5685 21.6853 54.0591 21.44C54.5605 21.1947 55.1098 21.072 55.7071 21.072ZM63.4455 22.432V27.6C63.4455 28.0267 63.5362 28.3307 63.7175 28.512C63.8988 28.6827 64.2135 28.768 64.6615 28.768H65.7335V30H64.4215C63.6108 30 63.0028 29.8133 62.5975 29.44C62.1922 29.0667 61.9895 28.4533 61.9895 27.6V22.432H60.8535V21.232H61.9895V19.024H63.4455V21.232H65.7335V22.432H63.4455ZM75.4976 25.28C75.4976 25.5573 75.4816 25.8507 75.4496 26.16H68.4416C68.495 27.024 68.7883 27.7013 69.3216 28.192C69.8656 28.672 70.5216 28.912 71.2896 28.912C71.919 28.912 72.4416 28.768 72.8576 28.48C73.2843 28.1813 73.583 27.7867 73.7536 27.296H75.3216C75.087 28.1387 74.6176 28.8267 73.9136 29.36C73.2096 29.8827 72.335 30.144 71.2896 30.144C70.4576 30.144 69.711 29.9573 69.0496 29.584C68.399 29.2107 67.887 28.6827 67.5136 28C67.1403 27.3067 66.9536 26.5067 66.9536 25.6C66.9536 24.6933 67.135 23.8987 67.4976 23.216C67.8603 22.5333 68.367 22.0107 69.0176 21.648C69.679 21.2747 70.4363 21.088 71.2896 21.088C72.1216 21.088 72.8576 21.2693 73.4976 21.632C74.1376 21.9947 74.6283 22.496 74.9696 23.136C75.3216 23.7653 75.4976 24.48 75.4976 25.28ZM73.9936 24.976C73.9936 24.4213 73.871 23.9467 73.6256 23.552C73.3803 23.1467 73.0443 22.8427 72.6176 22.64C72.2016 22.4267 71.7376 22.32 71.2256 22.32C70.4896 22.32 69.8603 22.5547 69.3376 23.024C68.8256 23.4933 68.5323 24.144 68.4576 24.976H73.9936ZM78.8755 22.656C79.1315 22.1547 79.4942 21.7653 79.9635 21.488C80.4435 21.2107 81.0248 21.072 81.7075 21.072V22.576H81.3235C79.6915 22.576 78.8755 23.4613 78.8755 25.232V30H77.4195V21.232H78.8755V22.656ZM95.2059 21.232L89.9259 34.128H88.4219L90.1499 29.904L86.6139 21.232H88.2299L90.9819 28.336L93.7019 21.232H95.2059ZM100.494 30.144C99.6722 30.144 98.9255 29.9573 98.2535 29.584C97.5922 29.2107 97.0695 28.6827 96.6855 28C96.3122 27.3067 96.1255 26.5067 96.1255 25.6C96.1255 24.704 96.3175 23.9147 96.7015 23.232C97.0962 22.5387 97.6295 22.0107 98.3015 21.648C98.9735 21.2747 99.7255 21.088 100.558 21.088C101.39 21.088 102.142 21.2747 102.814 21.648C103.486 22.0107 104.014 22.5333 104.398 23.216C104.792 23.8987 104.99 24.6933 104.99 25.6C104.99 26.5067 104.787 27.3067 104.382 28C103.987 28.6827 103.448 29.2107 102.766 29.584C102.083 29.9573 101.326 30.144 100.494 30.144ZM100.494 28.864C101.016 28.864 101.507 28.7413 101.966 28.496C102.424 28.2507 102.792 27.8827 103.07 27.392C103.358 26.9013 103.502 26.304 103.502 25.6C103.502 24.896 103.363 24.2987 103.086 23.808C102.808 23.3173 102.446 22.9547 101.998 22.72C101.55 22.4747 101.064 22.352 100.542 22.352C100.008 22.352 99.5175 22.4747 99.0695 22.72C98.6322 22.9547 98.2802 23.3173 98.0135 23.808C97.7468 24.2987 97.6135 24.896 97.6135 25.6C97.6135 26.3147 97.7415 26.9173 97.9975 27.408C98.2642 27.8987 98.6162 28.2667 99.0535 28.512C99.4908 28.7467 99.9708 28.864 100.494 28.864ZM114.68 21.232V30H113.224V28.704C112.947 29.152 112.557 29.504 112.056 29.76C111.565 30.0053 111.021 30.128 110.424 30.128C109.741 30.128 109.128 29.9893 108.584 29.712C108.04 29.424 107.608 28.9973 107.288 28.432C106.979 27.8667 106.824 27.1787 106.824 26.368V21.232H108.264V26.176C108.264 27.04 108.483 27.7067 108.92 28.176C109.357 28.6347 109.955 28.864 110.712 28.864C111.491 28.864 112.104 28.624 112.552 28.144C113 27.664 113.224 26.9653 113.224 26.048V21.232H114.68ZM118.594 22.656C118.85 22.1547 119.213 21.7653 119.682 21.488C120.162 21.2107 120.744 21.072 121.426 21.072V22.576H121.042C119.41 22.576 118.594 23.4613 118.594 25.232V30H117.138V21.232H118.594V22.656ZM128.829 22.848C129.117 22.3467 129.543 21.9307 130.109 21.6C130.685 21.2587 131.351 21.088 132.109 21.088C132.887 21.088 133.591 21.2747 134.221 21.648C134.861 22.0213 135.362 22.5493 135.725 23.232C136.087 23.904 136.269 24.688 136.269 25.584C136.269 26.4693 136.087 27.2587 135.725 27.952C135.362 28.6453 134.861 29.184 134.221 29.568C133.591 29.952 132.887 30.144 132.109 30.144C131.362 30.144 130.701 29.9787 130.125 29.648C129.559 29.3067 129.127 28.8853 128.829 28.384V34.16H127.373V21.232H128.829V22.848ZM134.781 25.584C134.781 24.9227 134.647 24.3467 134.381 23.856C134.114 23.3653 133.751 22.992 133.293 22.736C132.845 22.48 132.349 22.352 131.805 22.352C131.271 22.352 130.775 22.4853 130.317 22.752C129.869 23.008 129.506 23.3867 129.229 23.888C128.962 24.3787 128.829 24.9493 128.829 25.6C128.829 26.2613 128.962 26.8427 129.229 27.344C129.506 27.8347 129.869 28.2133 130.317 28.48C130.775 28.736 131.271 28.864 131.805 28.864C132.349 28.864 132.845 28.736 133.293 28.48C133.751 28.2133 134.114 27.8347 134.381 27.344C134.647 26.8427 134.781 26.256 134.781 25.584ZM142.537 21.072C143.198 21.072 143.796 21.216 144.329 21.504C144.862 21.7813 145.278 22.2027 145.577 22.768C145.886 23.3333 146.041 24.0213 146.041 24.832V30H144.601V25.04C144.601 24.1653 144.382 23.4987 143.945 23.04C143.508 22.5707 142.91 22.336 142.153 22.336C141.385 22.336 140.772 22.576 140.313 23.056C139.865 23.536 139.641 24.2347 139.641 25.152V30H138.185V18.16H139.641V22.48C139.929 22.032 140.324 21.6853 140.825 21.44C141.337 21.1947 141.908 21.072 142.537 21.072ZM152.244 30.144C151.422 30.144 150.676 29.9573 150.004 29.584C149.342 29.2107 148.82 28.6827 148.436 28C148.062 27.3067 147.876 26.5067 147.876 25.6C147.876 24.704 148.068 23.9147 148.452 23.232C148.846 22.5387 149.38 22.0107 150.052 21.648C150.724 21.2747 151.476 21.088 152.308 21.088C153.14 21.088 153.892 21.2747 154.564 21.648C155.236 22.0107 155.764 22.5333 156.148 23.216C156.542 23.8987 156.74 24.6933 156.74 25.6C156.74 26.5067 156.537 27.3067 156.132 28C155.737 28.6827 155.198 29.2107 154.516 29.584C153.833 29.9573 153.076 30.144 152.244 30.144ZM152.244 28.864C152.766 28.864 153.257 28.7413 153.716 28.496C154.174 28.2507 154.542 27.8827 154.82 27.392C155.108 26.9013 155.252 26.304 155.252 25.6C155.252 24.896 155.113 24.2987 154.836 23.808C154.558 23.3173 154.196 22.9547 153.748 22.72C153.3 22.4747 152.814 22.352 152.292 22.352C151.758 22.352 151.268 22.4747 150.82 22.72C150.382 22.9547 150.03 23.3173 149.764 23.808C149.497 24.2987 149.364 24.896 149.364 25.6C149.364 26.3147 149.492 26.9173 149.748 27.408C150.014 27.8987 150.366 28.2667 150.804 28.512C151.241 28.7467 151.721 28.864 152.244 28.864ZM162.926 21.072C163.993 21.072 164.857 21.3973 165.518 22.048C166.179 22.688 166.51 23.616 166.51 24.832V30H165.07V25.04C165.07 24.1653 164.851 23.4987 164.414 23.04C163.977 22.5707 163.379 22.336 162.622 22.336C161.854 22.336 161.241 22.576 160.782 23.056C160.334 23.536 160.11 24.2347 160.11 25.152V30H158.654V21.232H160.11V22.48C160.398 22.032 160.787 21.6853 161.278 21.44C161.779 21.1947 162.329 21.072 162.926 21.072ZM176.888 25.28C176.888 25.5573 176.872 25.8507 176.84 26.16H169.832C169.886 27.024 170.179 27.7013 170.712 28.192C171.256 28.672 171.912 28.912 172.68 28.912C173.31 28.912 173.832 28.768 174.248 28.48C174.675 28.1813 174.974 27.7867 175.144 27.296H176.712C176.478 28.1387 176.008 28.8267 175.304 29.36C174.6 29.8827 173.726 30.144 172.68 30.144C171.848 30.144 171.102 29.9573 170.44 29.584C169.79 29.2107 169.278 28.6827 168.904 28C168.531 27.3067 168.344 26.5067 168.344 25.6C168.344 24.6933 168.526 23.8987 168.888 23.216C169.251 22.5333 169.758 22.0107 170.408 21.648C171.07 21.2747 171.827 21.088 172.68 21.088C173.512 21.088 174.248 21.2693 174.888 21.632C175.528 21.9947 176.019 22.496 176.36 23.136C176.712 23.7653 176.888 24.48 176.888 25.28ZM175.384 24.976C175.384 24.4213 175.262 23.9467 175.016 23.552C174.771 23.1467 174.435 22.8427 174.008 22.64C173.592 22.4267 173.128 22.32 172.616 22.32C171.88 22.32 171.251 22.5547 170.728 23.024C170.216 23.4933 169.923 24.144 169.848 24.976H175.384ZM187.348 21.072C188.414 21.072 189.278 21.3973 189.94 22.048C190.601 22.688 190.932 23.616 190.932 24.832V30H189.492V25.04C189.492 24.1653 189.273 23.4987 188.836 23.04C188.398 22.5707 187.801 22.336 187.044 22.336C186.276 22.336 185.662 22.576 185.204 23.056C184.756 23.536 184.532 24.2347 184.532 25.152V30H183.076V21.232H184.532V22.48C184.82 22.032 185.209 21.6853 185.7 21.44C186.201 21.1947 186.75 21.072 187.348 21.072ZM201.086 21.232V30H199.63V28.704C199.353 29.152 198.963 29.504 198.462 29.76C197.971 30.0053 197.427 30.128 196.83 30.128C196.147 30.128 195.534 29.9893 194.99 29.712C194.446 29.424 194.014 28.9973 193.694 28.432C193.385 27.8667 193.23 27.1787 193.23 26.368V21.232H194.67V26.176C194.67 27.04 194.889 27.7067 195.326 28.176C195.763 28.6347 196.361 28.864 197.118 28.864C197.897 28.864 198.51 28.624 198.958 28.144C199.406 27.664 199.63 26.9653 199.63 26.048V21.232H201.086ZM214.089 21.072C214.771 21.072 215.379 21.216 215.913 21.504C216.446 21.7813 216.867 22.2027 217.177 22.768C217.486 23.3333 217.641 24.0213 217.641 24.832V30H216.201V25.04C216.201 24.1653 215.982 23.4987 215.545 23.04C215.118 22.5707 214.537 22.336 213.801 22.336C213.043 22.336 212.441 22.5813 211.993 23.072C211.545 23.552 211.321 24.2507 211.321 25.168V30H209.881V25.04C209.881 24.1653 209.662 23.4987 209.225 23.04C208.798 22.5707 208.217 22.336 207.481 22.336C206.723 22.336 206.121 22.5813 205.673 23.072C205.225 23.552 205.001 24.2507 205.001 25.168V30H203.545V21.232H205.001V22.496C205.289 22.0373 205.673 21.6853 206.153 21.44C206.643 21.1947 207.182 21.072 207.769 21.072C208.505 21.072 209.155 21.2373 209.721 21.568C210.286 21.8987 210.707 22.384 210.985 23.024C211.23 22.4053 211.635 21.9253 212.201 21.584C212.766 21.2427 213.395 21.072 214.089 21.072ZM221.485 22.864C221.784 22.3413 222.221 21.9147 222.797 21.584C223.373 21.2533 224.029 21.088 224.765 21.088C225.554 21.088 226.264 21.2747 226.893 21.648C227.522 22.0213 228.018 22.5493 228.381 23.232C228.744 23.904 228.925 24.688 228.925 25.584C228.925 26.4693 228.744 27.2587 228.381 27.952C228.018 28.6453 227.517 29.184 226.877 29.568C226.248 29.952 225.544 30.144 224.765 30.144C224.008 30.144 223.341 29.9787 222.765 29.648C222.2 29.3173 221.773 28.896 221.485 28.384V30H220.029V18.16H221.485V22.864ZM227.437 25.584C227.437 24.9227 227.304 24.3467 227.037 23.856C226.77 23.3653 226.408 22.992 225.949 22.736C225.501 22.48 225.005 22.352 224.461 22.352C223.928 22.352 223.432 22.4853 222.973 22.752C222.525 23.008 222.162 23.3867 221.885 23.888C221.618 24.3787 221.485 24.9493 221.485 25.6C221.485 26.2613 221.618 26.8427 221.885 27.344C222.162 27.8347 222.525 28.2133 222.973 28.48C223.432 28.736 223.928 28.864 224.461 28.864C225.005 28.864 225.501 28.736 225.949 28.48C226.408 28.2133 226.77 27.8347 227.037 27.344C227.304 26.8427 227.437 26.256 227.437 25.584ZM238.841 25.28C238.841 25.5573 238.825 25.8507 238.793 26.16H231.785C231.839 27.024 232.132 27.7013 232.665 28.192C233.209 28.672 233.865 28.912 234.633 28.912C235.263 28.912 235.785 28.768 236.201 28.48C236.628 28.1813 236.927 27.7867 237.097 27.296H238.665C238.431 28.1387 237.961 28.8267 237.257 29.36C236.553 29.8827 235.679 30.144 234.633 30.144C233.801 30.144 233.055 29.9573 232.393 29.584C231.743 29.2107 231.231 28.6827 230.857 28C230.484 27.3067 230.297 26.5067 230.297 25.6C230.297 24.6933 230.479 23.8987 230.841 23.216C231.204 22.5333 231.711 22.0107 232.361 21.648C233.023 21.2747 233.78 21.088 234.633 21.088C235.465 21.088 236.201 21.2693 236.841 21.632C237.481 21.9947 237.972 22.496 238.313 23.136C238.665 23.7653 238.841 24.48 238.841 25.28ZM237.337 24.976C237.337 24.4213 237.215 23.9467 236.969 23.552C236.724 23.1467 236.388 22.8427 235.961 22.64C235.545 22.4267 235.081 22.32 234.569 22.32C233.833 22.32 233.204 22.5547 232.681 23.024C232.169 23.4933 231.876 24.144 231.801 24.976H237.337ZM242.219 22.656C242.475 22.1547 242.838 21.7653 243.307 21.488C243.787 21.2107 244.369 21.072 245.051 21.072V22.576H244.667C243.035 22.576 242.219 23.4613 242.219 25.232V30H240.763V21.232H242.219V22.656Z" fill="#02897A"/>
<path d="M26.8182 12H15.1818C13.9773 12 13 13.0078 13 14.25V33.75C13 34.9922 13.9773 36 15.1818 36H26.8182C28.0227 36 29 34.9922 29 33.75V14.25C29 13.0078 28.0227 12 26.8182 12ZM23.1818 32.9578C23.1818 33.4125 22.8545 33.75 22.4545 33.75H19.5045C19.1455 33.75 18.8182 33.4125 18.8182 33C18.8182 32.5875 19.1455 32.25 19.5455 32.25H22.4545C22.8545 32.25 23.1818 32.5875 23.1818 32.9578ZM26.0909 30H15.9091V15H26.0909V30Z" fill="#02897A"/>
</g>
<defs>
<clipPath id="clip0_1_15">
<rect width="325" height="48" fill="white"/>
</clipPath>
</defs>
</svg>
